<svg id="Group_224" data-name="Group 224" xmlns="http://www.w3.org/2000/svg" xmlns:xlink="http://www.w3.org/1999/xlink" width="15.868" height="24.691" viewBox="0 0 15.868 24.691">
  <defs>
    <clipPath id="clip-path">
      <rect id="Rectangle_589" data-name="Rectangle 589" width="15.868" height="24.691" fill="#fff"/>
    </clipPath>
  </defs>
  <g id="Group_223" data-name="Group 223" clip-path="url(#clip-path)">
    <path id="Path_662" data-name="Path 662" d="M0,12.345Q0,7.668,0,2.991A2.934,2.934,0,0,1,2.393.058,3.068,3.068,0,0,1,2.995,0q4.934,0,9.869,0a2.939,2.939,0,0,1,3,3q0,9.345,0,18.691a2.93,2.93,0,0,1-2.4,2.945,3.137,3.137,0,0,1-.6.053q-4.934,0-9.869,0A2.94,2.94,0,0,1,0,21.681q0-4.668,0-9.336m1.164-.01q0,4.687,0,9.373a1.767,1.767,0,0,0,1.807,1.816q4.962,0,9.924,0A1.766,1.766,0,0,0,14.7,21.708q0-9.364,0-18.728a1.766,1.766,0,0,0-1.825-1.816H3.009A1.772,1.772,0,0,0,1.165,3.017q0,4.659,0,9.318" transform="translate(0 0)" fill="#fff"/>
    <path id="Path_663" data-name="Path 663" d="M145.939,65.1c-.465,0-.93,0-1.395,0a.586.586,0,1,1-.007-1.164q1.395,0,2.789,0a.587.587,0,1,1,.007,1.164h-1.395" transform="translate(-138.594 -61.586)" fill="#fff"/>
    <path id="Path_664" data-name="Path 664" d="M177.03,549.017a1.168,1.168,0,1,1,1.162-1.173,1.177,1.177,0,0,1-1.162,1.173" transform="translate(-169.382 -526.567)" fill="#fff"/>
  </g>
</svg>
