<svg xmlns="http://www.w3.org/2000/svg" width="25.219" height="24.615" viewBox="0 0 25.219 24.615">
  <g id="Group_4298" data-name="Group 4298" transform="translate(-210 -642)">
    <path id="Path_649" data-name="Path 649" d="M14.109,0c3.706,0,4.413,0,8.119,0a3.08,3.08,0,0,1,2.933,2.783,4.271,4.271,0,0,1,.055.722q0,8.808,0,17.615a3.2,3.2,0,0,1-3,3.493c-7.406,0-11.813,0-19.219,0A3.087,3.087,0,0,1,.054,21.822,4.082,4.082,0,0,1,0,21.142Q0,12.3,0,3.463A3.207,3.207,0,0,1,2.972,0Q8.541,0,14.109,0m.009,1.354q-5.56,0-11.119,0A1.927,1.927,0,0,0,1.165,3.479q0,8.829,0,17.658A1.926,1.926,0,0,0,3,23.261c7.394,0,11.789-.008,19.183.01a2.032,2.032,0,0,0,1.88-2.176c-.017-5.865-.008-11.729-.008-17.594A1.926,1.926,0,0,0,22.2,1.356H14.118" transform="translate(210 641.999)" fill="#fff"/>
    <path id="Icon_material-plus-one" data-name="Icon material-plus-one" d="M11.044,12H9.362v3.362H6v1.681H9.362v3.363h1.681V17.044h3.362V15.362H11.044Z" transform="translate(213 638)" fill="#fff"/>
  </g>
</svg>
