<svg id="Group_226" data-name="Group 226" xmlns="http://www.w3.org/2000/svg" xmlns:xlink="http://www.w3.org/1999/xlink" width="29.293" height="28.685" viewBox="0 0 29.293 28.685">
  <defs>
    <clipPath id="clip-path">
      <rect id="Rectangle_590" data-name="Rectangle 590" width="29.293" height="28.685" fill="#fff"/>
    </clipPath>
  </defs>
  <g id="Group_225" data-name="Group 225" clip-path="url(#clip-path)">
    <path id="Path_665" data-name="Path 665" d="M3.489,11.31a11.171,11.171,0,1,1,22.341,0c.169.034.343.061.514.1a3.519,3.519,0,0,1,2.532,2.362,6.559,6.559,0,0,1,.394,1.954,8.244,8.244,0,0,1-.4,3.422,3.5,3.5,0,0,1-2.5,2.349c-.14.035-.328.032-.406.122s-.024.269-.035.409a4.809,4.809,0,0,1-2.5,3.976A10.094,10.094,0,0,1,20,27.188a21,21,0,0,1-3.527.308.294.294,0,0,0-.321.214,1.618,1.618,0,0,1-1.859.931,1.643,1.643,0,0,1-1.268-1.654,1.621,1.621,0,0,1,1.44-1.56,1.581,1.581,0,0,1,1.6.782c.051.079.089.144.207.142a18.336,18.336,0,0,0,4.883-.624,6.358,6.358,0,0,0,2.328-1.172,3.42,3.42,0,0,0,1.13-1.7c-.347.021-.691.066-1.034.056a1.882,1.882,0,0,1-1.8-1.442,2.213,2.213,0,0,1-.055-.509q0-4.5,0-9.005A1.881,1.881,0,0,1,23.675,10c.3,0,.6.053.94.085a9.735,9.735,0,0,0-4.558-7.31A9.632,9.632,0,0,0,9.445,2.648a9.56,9.56,0,0,0-3.8,4.185,9.584,9.584,0,0,0-.935,3.275,2.67,2.67,0,0,1,1.368-.057A1.861,1.861,0,0,1,7.528,11.93q.005,3.152,0,6.3c0,.674-.006,1.348,0,2.022,0,.273.062.546.057.819a1.868,1.868,0,0,1-.72,1.447,2.182,2.182,0,0,1-3.251-.8.21.21,0,0,0-.137-.115A3.594,3.594,0,0,1,.29,18.64a8.28,8.28,0,0,1,.158-4.866,3.448,3.448,0,0,1,2.528-2.363c.166-.041.336-.066.513-.1m1.166,5.144q0,2.268,0,4.536a.691.691,0,0,0,.577.74,1.872,1.872,0,0,0,.637.007.605.605,0,0,0,.511-.685c-.006-.11,0-.22,0-.331q0-4.289,0-8.577a3.31,3.31,0,0,0-.012-.348.657.657,0,0,0-.444-.579,1.43,1.43,0,0,0-.468-.055.72.72,0,0,0-.8.792q0,2.25,0,4.5m18.232-.013q0,2.277,0,4.555a.681.681,0,0,0,.379.662,1.115,1.115,0,0,0,.975.023.924.924,0,0,0,.37-.4c.053-.1,0-.25,0-.378q0-4.426,0-8.852a1.94,1.94,0,0,0-.012-.256.687.687,0,0,0-.5-.6,1.294,1.294,0,0,0-.271-.035c-.647-.067-.96.33-.948.928.027,1.45.009,2.9.009,4.353m2.884,3.971a.272.272,0,0,0,.056.014.561.561,0,0,0,.073-.009,2.379,2.379,0,0,0,1.889-1.677,6.376,6.376,0,0,0,.346-2.218,6.246,6.246,0,0,0-.422-2.533,2.318,2.318,0,0,0-1.636-1.451c-.1-.023-.2-.034-.306-.053Zm-22.3.012V12.5a2.234,2.234,0,0,0-1.409.747,3.217,3.217,0,0,0-.645,1.265,7.826,7.826,0,0,0-.2,2.75,4.743,4.743,0,0,0,.525,1.952,2.267,2.267,0,0,0,1.732,1.216m11.185,6.142a.48.48,0,1,0,.479.481.488.488,0,0,0-.479-.481" transform="translate(-0.001 0)" fill="#fff"/>
  </g>
</svg>
