<svg xmlns="http://www.w3.org/2000/svg" xmlns:xlink="http://www.w3.org/1999/xlink" width="28.219" height="24.692" viewBox="0 0 28.219 24.692">
  <defs>
    <clipPath id="clip-path">
      <rect id="Rectangle_586" data-name="Rectangle 586" width="28.219" height="24.692" fill="#fff"/>
    </clipPath>
  </defs>
  <g id="Group_217" data-name="Group 217" clip-path="url(#clip-path)">
    <path id="Path_649" data-name="Path 649" d="M14.109,0q5.559,0,11.119,0a2.931,2.931,0,0,1,2.933,2.392,3.168,3.168,0,0,1,.055.62q0,7.572,0,15.144a2.937,2.937,0,0,1-3,3q-11.11,0-22.219,0a2.938,2.938,0,0,1-2.945-2.4A3.028,3.028,0,0,1,0,18.176q0-7.6,0-15.2A2.94,2.94,0,0,1,2.972,0Q8.541,0,14.109,0m.009,1.164H3A1.768,1.768,0,0,0,1.165,2.991q0,7.59,0,15.181A1.768,1.768,0,0,0,3,20q11.091,0,22.183.008a1.863,1.863,0,0,0,1.88-1.871c-.017-5.042-.008-10.084-.008-15.126A1.768,1.768,0,0,0,25.2,1.166H14.118" transform="translate(0 -0.001)" fill="#fff"/>
    <path id="Path_650" data-name="Path 650" d="M14.135,640.537q-6.707,0-13.413,0a.616.616,0,0,1-.632-.348.577.577,0,0,1,.566-.817c1.17,0,2.34,0,3.509,0h23.39a.612.612,0,0,1,.659.388.578.578,0,0,1-.575.774c-.649.005-1.3,0-1.948,0H14.135" transform="translate(-0.033 -615.847)" fill="#fff"/>
    <path id="Path_651" data-name="Path 651" d="M278.064,120.541a.485.485,0,0,1,.485-.485h6.787a.485.485,0,1,1,0,.97h-6.787a.485.485,0,0,1-.485-.485" transform="translate(-267.833 -115.639)" fill="#fff"/>
    <path id="Path_652" data-name="Path 652" d="M278.064,199.6a.485.485,0,0,1,.485-.485h6.787a.485.485,0,1,1,0,.97h-6.787a.485.485,0,0,1-.485-.485" transform="translate(-267.833 -191.785)" fill="#fff"/>
    <path id="Path_653" data-name="Path 653" d="M278.064,120.541a.485.485,0,0,1,.485-.485h2.909a3.394,3.394,0,1,1,0,6.787h-1.84l4.859,5.342a.485.485,0,0,1-.73.639l-5.563-6.147a.485.485,0,0,1,.365-.8h2.909a2.424,2.424,0,1,0,0-4.848h-2.909a.485.485,0,0,1-.485-.485" transform="translate(-267.833 -115.639)" fill="#fff"/>
  </g>
</svg>
