<svg version="1.2" xmlns="http://www.w3.org/2000/svg" viewBox="0 0 24 24" width="24" height="24">
	<title>selfcare-svg</title>
	<defs>
		<clipPath clipPathUnits="userSpaceOnUse" id="cp1">
			<path d="m0 0h24v24h-24z"/>
		</clipPath>
	</defs>
	<style>
		.s0 { fill: #ffffff } 
	</style>
	<g id="Group_230">
		<g id="Clip-Path: Group_229" clip-path="url(#cp1)">
			<g id="Group_229">
				<path id="Path_667" fill-rule="evenodd" class="s0" d="m13.8 6.3q0.7 0.3 1.3 0.8 0.5 0.5 0.8 1.2 0.2 0.7 0.2 1.5c0 1.5-0.9 2.8-2.3 3.4-1.4 0.6-3 0.3-4.1-0.8-1-1.1-1.3-2.7-0.8-4.1 0.6-1.4 2-2.3 3.5-2.3q0.7 0 1.4 0.3zm-0.5 5.5q0.4-0.1 0.7-0.5 0.3-0.3 0.5-0.7 0.1-0.4 0.1-0.9c0-0.9-0.5-1.7-1.3-2-0.9-0.4-1.8-0.2-2.5 0.5-0.6 0.6-0.8 1.6-0.5 2.4 0.4 0.9 1.2 1.4 2.1 1.4q0.4 0 0.9-0.2z"/>
				<path id="Path_668" fill-rule="evenodd" class="s0" d="m16.4 2.3c1.3 0.5 2.4 1.3 3.4 2.3 1 1 1.8 2.1 2.3 3.4 0.5 1.3 0.8 2.6 0.8 4 0 4.2-2.6 8.1-6.5 9.7-3.9 1.6-8.4 0.7-11.4-2.3-3-3-3.9-7.5-2.3-11.4 1.6-3.9 5.5-6.5 9.7-6.5 1.4 0 2.7 0.3 4 0.8zm-6.3 18.4q1.1 0.3 2.3 0.3 1.2 0 2.3-0.3 1.2-0.3 2.2-0.9v-1q0-0.5-0.2-0.9-0.1-0.4-0.5-0.7-0.3-0.4-0.7-0.5-0.4-0.2-0.9-0.2h-4.4q-0.5 0-0.9 0.2-0.4 0.1-0.7 0.5-0.4 0.3-0.5 0.7-0.2 0.4-0.2 0.9v1q1 0.6 2.2 0.9zm10.7-11.9c-1.3-3.5-4.7-5.8-8.4-5.8-3.7 0-7.1 2.3-8.4 5.8-1.3 3.5-0.4 7.4 2.4 9.9q0-0.7 0.3-1.4 0.3-0.7 0.8-1.2 0.5-0.5 1.2-0.8 0.7-0.3 1.5-0.3h4.4q0.8 0 1.5 0.3 0.7 0.3 1.2 0.8 0.5 0.5 0.8 1.2 0.3 0.7 0.3 1.4c2.8-2.5 3.7-6.4 2.4-9.9z"/>
			</g>
		</g>
	</g>
</svg>